<svg version="1.1" id="Layer_1" xmlns="http://www.w3.org/2000/svg" xmlns:xlink="http://www.w3.org/1999/xlink" x="0px" y="0px"
	 width="100%" viewBox="0 0 176 176" enable-background="new 0 0 176 176" xml:space="preserve">
<path fill="#000000" opacity="1.000000" stroke="none" 
	d="
M33.997715,144.997177 
	C28.099674,142.490265 25.496462,138.132874 27.680330,132.371216 
	C31.764877,121.594986 37.834480,112.264938 48.809551,107.027458 
	C57.124210,103.059563 65.921700,100.536476 74.678925,97.897766 
	C79.314270,96.501045 82.968544,94.136520 86.074699,90.341141 
	C88.747818,87.074867 87.394997,85.744682 84.310143,85.297470 
	C78.697800,84.483871 74.107590,81.826195 69.358482,78.916634 
	C62.057705,74.443771 59.882862,57.372074 66.665962,47.837460 
	C71.956886,40.400311 82.195023,39.002750 91.769569,44.627197 
	C92.473701,45.040833 93.182579,45.446400 93.923393,45.875488 
	C95.976990,44.574444 95.798424,42.357887 96.458534,40.585190 
	C97.384651,38.098141 97.533112,35.106483 99.033730,33.088985 
	C103.417847,27.194798 107.378983,21.315783 108.703995,13.810339 
	C109.226631,10.849940 112.388145,10.119470 115.273697,11.142091 
	C120.949532,13.153572 124.529007,17.502773 127.251923,22.602119 
	C128.500168,24.939764 127.375069,26.785696 125.257576,28.047750 
	C122.146492,29.902008 118.983879,29.869337 116.053856,27.681942 
	C114.549728,30.030685 115.224670,32.096462 115.482742,33.963730 
	C115.983299,37.585426 117.673004,38.605370 121.758667,37.626347 
	C130.114929,35.623985 137.958267,32.294678 146.067963,29.691605 
	C159.626099,25.339666 163.774048,28.201065 162.609131,45.005203 
	C162.254623,50.119171 158.237000,51.887001 153.535675,49.675045 
	C151.296997,48.621750 149.729416,47.016907 149.644379,44.343643 
	C149.568359,41.953671 150.375198,38.918350 146.281525,39.193928 
	C142.692566,39.435532 138.230499,38.892143 137.224030,43.479412 
	C136.117294,48.523769 133.941803,52.877541 131.080460,56.987221 
	C129.762009,58.880871 130.019135,60.534504 130.685562,62.585510 
	C133.617920,71.610115 133.054443,79.928703 125.498291,86.820633 
	C123.868767,88.306908 121.630005,90.292252 123.078644,92.794456 
	C124.510498,95.267654 127.275848,95.016823 129.848633,94.505959 
	C139.168213,92.655434 146.836990,81.075523 144.598358,72.195915 
	C143.931915,69.552452 143.230713,66.774994 146.250214,65.106758 
	C149.365936,63.385365 153.022278,62.838520 155.604004,65.422264 
	C159.377457,69.198669 163.685013,70.509590 168.705627,70.143372 
	C171.809631,69.916962 173.571548,72.858185 176.711075,73.045151 
	C177.000000,107.552254 177.000000,142.104507 177.000000,177.000000 
	C167.648575,177.000000 158.292938,177.000000 148.718445,176.828766 
	C149.328827,175.962997 151.446167,175.938232 150.870605,174.580399 
	C148.266983,168.437988 150.800140,161.661972 148.094986,155.493256 
	C145.604553,149.814209 144.239685,148.865723 138.292603,150.480133 
	C136.789383,150.888199 135.355255,151.960266 133.075241,151.158783 
	C141.834229,146.639511 148.808716,140.612869 154.879013,133.478180 
	C156.254120,131.861954 157.320145,130.264648 156.617859,128.093277 
	C155.362259,124.211014 138.918549,117.110245 135.126602,118.771225 
	C130.352249,120.862511 130.131546,123.430641 134.333221,128.792435 
	C133.032822,131.509506 128.694351,131.881424 129.394592,136.776810 
	C126.860603,133.688309 125.016479,131.573273 123.324570,129.342789 
	C121.474899,126.904327 119.540154,124.800270 116.250092,124.277534 
	C109.617142,123.223686 104.906898,125.530800 102.427147,131.294510 
	C100.123314,136.649338 102.317848,144.346619 107.046776,147.917450 
	C109.758690,149.965210 113.086777,150.620255 116.124603,152.118179 
	C116.419930,160.700317 120.661598,168.457764 121.000000,177.000000 
	C97.645775,177.000000 74.291542,177.000000 50.282337,176.722351 
	C40.878326,168.706375 40.677467,167.962555 44.193905,157.639694 
	C45.202030,154.680237 46.094421,151.681366 47.143738,148.386520 
	C48.831806,144.836517 50.996323,141.881210 52.193771,138.067749 
	C54.510078,133.775833 56.586395,129.758301 58.662716,125.740768 
	C58.370323,125.593521 58.077934,125.446266 57.785545,125.299011 
	C57.275391,125.920959 56.765232,126.542908 56.135612,127.081627 
	C56.016144,126.998398 55.777283,126.831856 55.831726,126.498398 
	C55.793331,124.494751 57.625111,123.282104 57.002388,121.330315 
	C50.158596,117.475479 51.130833,127.764656 46.129673,127.343285 
	C45.910309,126.105629 45.906872,124.735718 45.417210,123.570053 
	C43.775105,119.660942 39.857021,118.527664 37.049240,121.017944 
	C28.629353,128.485764 27.666056,136.055496 33.997715,144.997177 
M112.000412,102.756882 
	C114.061539,101.715332 116.183319,100.919731 116.856895,98.198524 
	C118.402779,91.953156 121.554199,86.671356 126.003708,81.885391 
	C131.251480,76.240814 130.830551,65.907364 125.736069,61.717621 
	C125.204971,62.005825 124.606422,62.279621 124.060509,62.634411 
	C113.561768,69.457588 103.574959,66.781349 97.448105,55.751812 
	C94.149170,49.813099 89.974220,44.767708 82.580383,43.584789 
	C75.971390,42.527439 69.663971,45.956741 66.927437,52.448189 
	C63.776615,59.922379 64.613449,63.246506 70.674370,67.623749 
	C70.980240,67.844658 70.975906,68.495056 71.091728,68.867416 
	C70.196411,70.415627 67.694656,70.046715 67.562454,72.480263 
	C68.971069,76.404869 72.735809,78.124199 76.125435,80.082001 
	C84.022903,84.643463 98.040733,83.563011 103.328842,78.182678 
	C106.841270,74.608994 108.573967,74.792175 111.013817,79.123146 
	C112.332237,81.463463 113.110237,84.017441 113.307404,86.707008 
	C113.653442,91.427330 111.281891,94.693260 107.374062,96.841866 
	C103.578560,98.928703 100.033333,97.965591 96.725761,95.395050 
	C95.266411,94.260880 94.282455,92.052032 91.799347,92.777649 
	C90.534325,94.543892 91.239716,95.955116 92.483589,97.244019 
	C97.673065,102.621368 103.433487,106.195122 112.000412,102.756882 
M93.138496,107.524513 
	C101.734558,110.178001 109.932671,110.597923 117.446899,102.867508 
	C104.747154,108.513275 93.161125,110.426384 83.326767,98.323982 
	C84.642326,103.603844 88.292961,105.675507 93.138496,107.524513 
M92.727249,122.465950 
	C89.750404,129.450363 96.576164,127.017494 98.930252,128.804230 
	C100.632469,130.096191 101.653633,128.675690 102.217804,127.188904 
	C102.810196,125.627701 101.849228,124.546326 100.554390,124.103180 
	C98.145340,123.278725 95.642471,122.728363 92.727249,122.465950 
M64.893974,105.207268 
	C67.701126,104.227081 70.508278,103.246887 73.315437,102.266701 
	C73.227066,102.038261 73.138687,101.809822 73.050316,101.581375 
	C68.537155,103.020828 64.024002,104.460274 59.098171,106.031349 
	C61.281620,107.017426 62.641396,105.491714 64.893974,105.207268 
M42.932095,117.781418 
	C43.075584,117.858894 43.212055,117.974976 43.364590,118.002724 
	C43.509804,118.029129 43.807217,117.963142 43.807186,117.938057 
	C43.803967,115.219406 45.768890,113.583176 47.256237,111.628769 
	C45.644867,113.587471 40.823608,112.886887 42.932095,117.781418 
z"/>
<path fill="#000000" opacity="1.000000" stroke="none" 
	d="
M51.953789,138.342117 
	C50.996323,141.881210 48.831806,144.836517 46.923100,148.684357 
	C44.684132,153.660095 42.551113,157.943588 40.909904,162.407883 
	C38.805073,168.133286 39.850658,170.717896 44.846115,174.060959 
	C46.047901,174.865234 47.564949,175.361191 48.000000,177.000000 
	C43.975456,177.000000 39.950912,177.000000 35.463184,177.000000 
	C39.491199,172.988266 37.510838,167.472595 38.239113,162.609070 
	C38.448627,161.209885 37.837376,159.617432 38.531780,158.250153 
	C40.679001,154.022324 39.249527,150.639374 36.459126,147.338379 
	C40.424011,147.992111 44.884148,149.644318 45.588203,143.839417 
	C46.482224,136.468216 52.711628,132.677048 55.777283,126.831856 
	C55.777283,126.831856 56.016144,126.998398 56.068169,127.435165 
	C54.731396,131.362000 53.342594,134.852066 51.953789,138.342117 
z"/>
</svg>